<?xml version="1.0" standalone="no"?>
<svg version="1.0" xmlns="http://www.w3.org/2000/svg"
 width="1024.000000pt" height="1024.000000pt" viewBox="0 0 1024.000000 1024.000000"
 preserveAspectRatio="xMidYMid meet">

<g transform="translate(0.000000,1024.000000) scale(0.100000,-0.100000)"
fill="#000000" stroke="none">
<path d="M0 5120 l0 -5120 5120 0 5120 0 0 5120 0 5120 -5120 0 -5120 0 0
-5120z m3482 2260 c33 0 87 -62 154 -177 l68 -117 -17 -64 c-26 -99 -66 -179
-108 -217 -42 -37 -63 -42 -104 -23 -28 13 -30 16 -45 143 -10 79 -38 185 -59
223 -4 7 -17 -18 -30 -60 -13 -40 -45 -129 -73 -197 -54 -138 -54 -141 20
-141 23 0 100 -7 170 -16 143 -18 205 -41 227 -85 21 -41 19 -122 -5 -169 -39
-77 -107 -90 -305 -60 -274 42 -293 40 -364 -34 -27 -28 -43 -36 -69 -36 -29
0 -47 12 -116 78 -44 43 -96 90 -114 105 -23 19 -28 27 -17 27 31 0 157 73
211 123 100 91 219 285 231 375 4 28 0 44 -17 65 -18 23 -29 27 -74 27 -68 0
-152 -25 -196 -58 -19 -15 -91 -83 -160 -153 -129 -130 -203 -186 -350 -261
-153 -78 -233 -181 -266 -342 -23 -112 -9 -199 96 -606 146 -562 279 -952 416
-1222 81 -159 129 -233 309 -472 110 -147 175 -223 286 -332 274 -267 337
-292 706 -274 268 13 436 12 470 -2 28 -11 27 -11 -22 -19 -27 -4 -126 -15
-220 -24 -98 -9 -225 -29 -300 -47 -220 -51 -334 -34 -492 73 -76 51 -252 206
-367 324 -272 277 -498 588 -654 900 -140 280 -196 498 -342 1330 -12 66 -33
165 -47 220 -21 79 -26 125 -27 215 -1 170 27 244 191 517 167 280 250 384
340 429 l58 29 475 5 c261 3 484 5 495 3 11 -1 28 -3 37 -3z m3143 -966 c94
-17 192 -47 249 -76 122 -61 455 -305 526 -384 49 -55 150 -257 175 -349 26
-96 31 -290 10 -378 -48 -199 -127 -338 -280 -492 -88 -89 -130 -123 -210
-169 -55 -32 -118 -70 -140 -84 l-40 -25 32 36 c18 21 40 52 49 70 10 17 40
68 69 112 67 105 163 271 215 374 79 159 127 355 105 437 -7 27 -9 24 -31 -41
-45 -134 -83 -194 -179 -290 -50 -50 -118 -106 -153 -127 -96 -55 -263 -107
-369 -114 -160 -12 -275 17 -533 134 -85 39 -184 79 -219 91 -90 30 -114 52
-69 67 13 4 127 78 255 166 248 170 360 229 548 292 149 49 246 66 373 66 128
0 216 -17 300 -58 34 -17 62 -29 62 -28 0 11 -42 120 -58 151 -26 51 -56 79
-113 104 -101 45 -348 65 -498 41 -102 -17 -244 -67 -426 -150 -321 -147 -397
-165 -672 -157 -209 6 -243 10 -243 34 0 36 67 177 128 268 185 279 463 454
787 495 86 10 242 3 350 -16z m510 -4 c197 -36 348 -96 534 -213 127 -80 190
-134 284 -242 213 -244 344 -667 308 -998 -12 -109 -45 -243 -85 -344 -39
-101 -169 -311 -374 -605 -111 -159 -104 -137 19 57 206 327 277 596 249 943
-23 285 -104 488 -299 747 -88 117 -197 233 -277 296 -31 24 -114 90 -185 146
-129 103 -201 153 -294 205 -48 26 -49 28 -20 28 17 0 80 -9 140 -20z m-4420
-280 c33 -65 117 -185 164 -233 25 -26 89 -75 141 -109 329 -211 456 -307 613
-461 204 -200 321 -408 362 -644 17 -97 20 -295 5 -370 -11 -59 -68 -193 -82
-193 -16 0 -211 200 -294 302 -50 62 -140 200 -248 380 -93 156 -192 319 -219
363 -93 147 -339 501 -487 699 -58 78 -120 165 -138 193 l-34 53 27 32 c15 18
54 56 88 85 l62 52 11 -57 c6 -31 19 -73 29 -92z m2501 -605 c110 -20 146 -41
178 -108 49 -102 43 -226 -15 -345 -41 -84 -162 -203 -315 -311 -256 -181
-379 -291 -596 -533 -88 -98 -161 -178 -164 -178 -3 0 -19 30 -36 68 -21 45
-32 88 -35 132 -4 60 -1 71 36 148 23 46 62 110 87 143 25 33 45 61 43 62 -2
1 -30 15 -61 30 -31 16 -79 52 -106 81 -48 51 -102 140 -102 169 0 20 149 242
206 307 128 145 249 233 399 291 152 59 311 73 481 44z m-2406 -188 c0 -12 98
-317 222 -692 114 -344 267 -706 359 -852 37 -60 39 -64 17 -58 -103 32 -240
143 -338 276 -216 291 -305 641 -284 1124 4 99 8 190 8 202 1 21 16 22 16 0z
m3020 -751 c-19 -141 -68 -323 -110 -406 l-38 -75 72 8 c315 37 462 75 658
172 157 78 364 225 432 306 14 17 26 28 26 26 0 -3 -16 -51 -36 -108 -76 -219
-159 -346 -348 -534 -180 -179 -341 -286 -562 -373 -336 -134 -712 -194 -1073
-172 -248 15 -385 46 -566 130 l-70 33 40 8 c22 5 115 15 207 24 259 23 420
65 599 155 158 80 355 240 474 384 157 191 212 289 292 526 13 38 15 -19 3
-104z"/>
</g>
</svg>
